<svg xmlns="http://www.w3.org/2000/svg" width="1000" height="1000" viewBox="0 0 1000 1000">
<g>
<path d="M 474.50 828.86 C471.22,827.00 467.92,823.69 466.15,820.50 C464.66,817.78 464.45,807.98 464.00,716.00 L 463.50 614.50 L 460.71 609.21 C457.29,602.72 451.82,596.54 446.51,593.18 C440.45,589.35 394.76,561.08 375.50,549.25 C356.44,537.54 353.54,535.22 350.90,529.50 C349.18,525.79 349.04,522.09 349.02,477.70 L 349.00 429.91 L 351.45 427.45 C353.12,425.79 355.03,425.00 357.40,425.00 C361.12,425.00 358.35,423.35 450.74,480.33 C474.52,494.99 494.55,507.11 495.24,507.25 C496.23,507.45 496.61,498.31 497.03,464.50 C497.50,426.92 497.79,420.93 499.31,416.96 C501.20,412.02 505.11,406.96 535.95,369.59 C547.25,355.89 558.75,341.91 561.50,338.52 C564.25,335.12 578.76,317.71 593.73,299.82 L 620.97 267.29 L 618.03 261.87 C609.84,246.76 609.94,227.34 618.28,211.58 C622.58,203.46 631.90,194.31 640.00,190.24 C675.98,172.18 717.00,197.00 717.00,236.82 C717.00,265.28 696.41,287.49 667.99,289.68 L 660.31 290.27 L 650.91 301.83 C645.73,308.18 638.12,317.48 634.00,322.50 C623.30,335.52 608.08,354.12 593.82,371.62 C587.04,379.94 574.08,395.82 565.00,406.92 C555.92,418.02 547.60,428.99 546.50,431.30 C544.73,435.01 544.46,437.98 544.18,456.88 C544.00,468.64 544.23,478.61 544.68,479.05 C545.13,479.48 569.12,464.78 598.00,446.38 C626.88,427.98 664.90,403.86 682.50,392.79 C700.10,381.71 718.78,369.88 724.00,366.50 C729.22,363.12 743.40,354.14 755.50,346.54 C767.60,338.94 781.55,330.15 786.50,327.02 C816.46,308.03 816.60,307.97 822.39,310.39 C829.56,313.39 829.05,298.88 828.76,489.72 L 828.50 661.50 L 826.18 664.75 C824.85,666.62 815.91,673.25 805.18,680.34 C794.91,687.12 772.38,702.02 755.13,713.46 C724.31,733.89 719.98,736.15 717.90,732.88 C717.42,732.12 717.02,680.00 717.02,616.36 C717.00,523.19 716.75,501.12 715.71,500.72 C715.00,500.45 697.11,511.44 675.96,525.16 C654.81,538.88 627.60,556.45 615.50,564.22 C591.19,579.81 587.08,583.16 583.16,590.50 L 580.50 595.50 L 580.00 691.00 L 579.50 786.50 L 577.24 791.08 C576.00,793.61 573.97,796.57 572.74,797.66 C570.59,799.58 557.24,807.97 533.10,822.60 L 521.70 829.50 L 499.10 829.75 C483.66,829.92 475.87,829.64 474.50,828.86 ZM 392.50 789.09 C383.37,783.36 281.10,719.76 243.00,696.12 C204.13,671.99 197.55,667.55 190.99,661.00 C182.94,652.96 177.61,644.15 174.34,633.50 C172.59,627.79 172.50,620.52 172.50,485.00 L 172.50 342.50 L 175.34 333.85 C179.33,321.65 187.51,310.04 197.40,302.51 C199.11,301.21 248.02,271.60 306.11,236.71 C385.24,189.17 413.03,172.95 416.97,172.01 C426.02,169.84 434.13,171.12 443.96,176.29 C459.18,184.29 526.44,223.05 528.33,224.90 C530.88,227.42 531.59,233.97 529.70,237.61 C528.59,239.76 521.17,244.90 501.84,256.92 C474.63,273.84 468.48,277.67 397.00,322.20 C373.62,336.76 343.02,355.79 329.00,364.48 C310.10,376.19 301.93,381.86 297.45,386.39 C290.78,393.12 285.74,402.12 284.04,410.31 C283.30,413.89 283.04,439.73 283.23,492.03 L 283.50 568.50 L 287.22 576.28 C293.21,588.83 296.52,591.43 342.92,620.00 C406.20,658.97 405.32,658.40 407.75,661.98 L 410.00 665.30 L 410.00 725.22 L 410.00 785.15 L 407.08 788.08 C404.74,790.42 403.29,791.00 399.83,790.98 C397.35,790.97 394.22,790.16 392.50,789.09 Z" fill="rgba(0,0,0,1)"/>
</g>
</svg>